<svg width="38" height="38" viewBox="0 0 38 38" fill="none" xmlns="http://www.w3.org/2000/svg">
<path d="M11.4761 15.6831C11.4761 15.0048 11.7775 14.4917 12.3518 14.1554C13.3923 13.5398 14.4498 12.947 15.496 12.3428C16.3887 11.8298 17.2757 11.3111 18.1684 10.7923C18.6915 10.4902 19.2203 10.4674 19.7491 10.7581C20.238 11.026 20.7213 11.3168 21.2046 11.5961C22.6943 12.4568 24.184 13.3118 25.668 14.1782C26.0888 14.4233 26.3731 14.7939 26.4584 15.2784C26.5152 15.6261 26.5266 15.9795 26.5266 16.3329C26.5323 18.2482 26.5266 20.1634 26.5266 22.073C26.5266 22.2497 26.5152 22.4321 26.4868 22.6088C26.3958 23.1275 26.14 23.5379 25.6794 23.8115C24.7071 24.3815 23.7405 24.9515 22.7626 25.5159C21.7789 26.0859 20.7953 26.6559 19.8059 27.2145C19.2828 27.5109 18.7256 27.5223 18.2025 27.2316C17.3553 26.7642 16.5252 26.2626 15.6837 25.7781C14.7512 25.2423 13.8187 24.7064 12.8919 24.1649C12.619 24.0053 12.329 23.8514 12.0845 23.6519C11.6638 23.3099 11.4705 22.8482 11.4705 22.3067C11.4705 21.1951 11.4705 20.0836 11.4705 18.9721C11.4705 17.8776 11.4705 16.7832 11.4705 15.6888L11.4761 15.6831ZM19.7945 17.2164C19.8912 17.547 20.1073 17.7807 20.3688 17.9802C20.4257 18.0258 20.4882 18.0714 20.5508 18.0999C20.7896 18.2197 20.8521 18.4192 20.818 18.67C20.7441 19.2115 20.6645 19.7587 20.6076 20.3002C20.5337 21.0184 20.4655 21.7367 20.4257 22.4549C20.4086 22.7684 20.4598 23.0819 20.6247 23.3612C20.7384 23.555 20.8976 23.6747 21.125 23.6747C21.3525 23.6747 21.5174 23.5607 21.6254 23.3555C21.7846 23.0534 21.8358 22.8083 21.8301 21.9647C21.8017 21.6854 21.7448 21.1438 21.6822 20.608C21.614 20.0038 21.5344 19.3939 21.4605 18.7897C21.4548 18.7384 21.4491 18.6871 21.4378 18.6415C21.3752 18.3451 21.3923 18.2824 21.6595 18.117C22.0234 17.8947 22.3191 17.6154 22.4498 17.1936C22.6602 16.5324 22.5863 15.8883 22.2793 15.267C22.1314 14.9649 21.9381 14.7027 21.6709 14.4974C21.2729 14.1896 20.8692 14.2124 20.4996 14.5544C20.0277 14.9934 19.7547 15.5292 19.7036 16.1733C19.6751 16.521 19.6979 16.863 19.7945 17.205V17.2164ZM15.4676 21.7766C15.4904 22.0559 15.5074 22.3352 15.5472 22.6145C15.5813 22.8539 15.6439 23.0876 15.8429 23.2757C15.8429 23.2187 15.8429 23.156 15.8429 23.099C15.8429 22.5803 15.8429 22.0673 15.8429 21.5485C15.8429 21.4402 15.8656 21.3262 15.9054 21.2236C15.9566 21.0868 16.0817 21.0355 16.2181 21.0412C16.3546 21.0469 16.4513 21.1267 16.4911 21.2578C16.5252 21.3661 16.5366 21.4801 16.5422 21.5884C16.5422 22.0559 16.5366 22.5176 16.5479 22.985C16.5536 23.1845 16.6105 23.3783 16.656 23.5778C16.6673 23.6177 16.7185 23.6462 16.7526 23.6747C16.781 23.6405 16.8322 23.6063 16.8379 23.5664C16.8777 23.3783 16.9346 23.1845 16.9402 22.9907C16.9516 22.4948 16.9402 22.0046 16.9459 21.5086C16.9459 21.4117 16.9687 21.3091 17.0142 21.2179C17.0824 21.0811 17.2075 21.007 17.361 21.0412C17.5145 21.0754 17.6055 21.1894 17.6169 21.3433C17.6339 21.577 17.6282 21.8108 17.6282 22.0445C17.6282 22.3922 17.6282 22.7399 17.6282 23.0876C17.6282 23.1389 17.651 23.1959 17.6624 23.2472C17.6794 23.2529 17.6965 23.2586 17.7135 23.27C17.7704 23.1503 17.8557 23.0363 17.8727 22.9166C17.9466 22.472 18.0206 22.0217 18.0433 21.5713C18.0604 21.1837 18.0433 20.7847 17.9808 20.4028C17.9125 19.9639 17.6396 19.6789 17.1904 19.5991C17.0881 19.582 17.0369 19.5307 17.0483 19.4338C17.0596 19.297 17.0881 19.1545 17.1051 19.0177C17.2075 18.1627 17.3269 17.3076 17.4065 16.4469C17.4463 16.0137 17.4406 15.5748 17.4065 15.1416C17.3894 14.9364 17.2928 14.7198 17.1791 14.5373C16.963 14.1896 16.4285 14.2466 16.2466 14.6342C16.1499 14.8395 16.0703 15.0675 16.0589 15.2898C16.0362 15.6888 16.0589 16.0992 16.0931 16.4982C16.1556 17.1708 16.2352 17.8434 16.3205 18.5161C16.3546 18.8068 16.4001 19.0918 16.4513 19.3768C16.474 19.5079 16.4513 19.582 16.3034 19.5991C15.877 19.639 15.5472 20.0722 15.4733 20.494C15.3994 20.9272 15.4335 21.3547 15.4733 21.7823L15.4676 21.7766Z" fill="#FF8C00"/>
<path d="M10.606 12.263C10.5833 12.7475 10.5719 13.2264 10.7197 13.6995C10.8278 14.0472 11.004 14.0928 11.2656 13.8306C11.5669 13.5285 11.8683 13.2264 12.1867 12.947C12.6586 12.5309 13.1249 12.1148 13.6195 11.7329C14.4099 11.123 15.2002 10.5188 16.019 9.96016C16.5932 9.56685 17.2073 9.22484 17.8214 8.89423C18.4639 8.54652 19.1177 8.21021 19.783 7.9081C20.7382 7.47488 21.7162 7.11577 22.7226 6.82507C23.8427 6.50586 24.9799 6.24935 26.1398 6.14105C26.3899 6.11825 26.4525 5.97574 26.3047 5.77624C26.2762 5.73633 26.2364 5.70213 26.1966 5.66793C25.6167 5.16632 24.9173 4.86421 24.218 4.5849C23.6778 4.37399 23.1149 4.22009 22.5293 4.18019C22.0573 4.14599 21.6821 4.25429 21.4091 4.6875C21.1362 5.12072 20.7666 5.46273 20.2663 5.77053C19.6579 6.12965 18.5662 6.23225 17.8271 5.97574C17.1561 5.74203 16.6444 5.33732 16.3658 4.659C16.3203 4.5507 16.1725 4.4481 16.0531 4.4139C15.9052 4.36829 15.729 4.36829 15.5755 4.39109C15.0353 4.4709 14.5349 4.6761 14.0346 4.89271C13.3637 5.18342 12.8463 5.64513 12.4255 6.22085C11.7887 7.09867 11.402 8.0962 11.1121 9.13363C10.8278 10.1597 10.6515 11.2028 10.606 12.2687V12.263Z" fill="url(#paint0_linear_227_1346)"/>
<path d="M19.6297 4.70475C20.3461 4.28864 20.5849 3.37661 20.1699 2.65839C19.7491 1.92877 18.8564 1.68936 18.1343 2.09977C17.3781 2.53299 17.1905 3.48491 17.5828 4.14613C18.0206 4.88715 18.936 5.09806 19.6297 4.70475Z" fill="#FFE6CA"/>
<path d="M34.1 16.3272C34.0147 15.7515 33.8668 15.1871 33.611 14.657C33.4063 14.2295 33.122 13.9559 32.616 13.9388C32.1099 13.9217 31.6266 13.7678 31.1092 13.4885C30.4951 13.1351 29.864 12.2459 29.7162 11.4706C29.5854 10.7695 29.6764 10.1254 30.1312 9.54398C30.2052 9.45277 30.2165 9.27037 30.1881 9.15066C30.154 8.99676 30.0687 8.84856 29.972 8.72315C29.6366 8.28994 29.2044 7.95933 28.7666 7.63442C28.181 7.19551 27.5271 6.9732 26.8107 6.8991C25.7304 6.7851 24.6785 6.9447 23.638 7.21261C22.6089 7.47482 21.6195 7.84533 20.6757 8.33554C20.2492 8.55785 19.8285 8.78585 19.493 9.14496C19.2428 9.41287 19.294 9.58388 19.6522 9.68648C20.0616 9.80048 20.471 9.90879 20.8747 10.0456C21.466 10.2451 22.063 10.4503 22.6373 10.6897C23.5584 11.0716 24.4738 11.4592 25.3665 11.8924C25.9919 12.1946 26.5946 12.5594 27.1917 12.9299C27.8171 13.3118 28.4312 13.7108 29.0225 14.144C29.8697 14.7539 30.6714 15.4265 31.4219 16.1619C32.2577 16.977 33.0424 17.8377 33.719 18.7896C33.8668 18.9948 34.0147 18.9777 34.1113 18.7497C34.1284 18.7041 34.1398 18.6528 34.1511 18.6015C34.2933 17.8434 34.208 17.091 34.1 16.3386V16.3272Z" fill="url(#paint1_linear_227_1346)"/>
<path d="M31.7065 12.3999C32.4229 12.8103 33.3326 12.5652 33.7477 11.8526C34.1684 11.123 33.9296 10.2281 33.2132 9.80628C32.4627 9.36737 31.5416 9.67518 31.1663 10.3478C30.7455 11.1002 31.0185 12.0008 31.7065 12.4056V12.3999Z" fill="#FFE6CA"/>
<path d="M32.6276 23.9426C32.7414 23.9597 32.9062 23.8799 32.9972 23.7944C33.1109 23.6918 33.2019 23.5379 33.2588 23.3897C33.4635 22.8824 33.5431 22.3466 33.6113 21.8051C33.7023 21.0811 33.5715 20.3971 33.2815 19.7359C32.8494 18.7384 32.1841 17.9005 31.445 17.1252C30.7115 16.3614 29.8984 15.6774 29.0057 15.1017C28.6021 14.8395 28.1927 14.5887 27.7151 14.469C27.3625 14.3834 27.2374 14.5146 27.3284 14.8737C27.4365 15.2841 27.5388 15.7002 27.6241 16.1163C27.7435 16.7319 27.8629 17.3475 27.9368 17.9689C28.0619 18.9607 28.1756 19.9468 28.2438 20.9443C28.2893 21.6398 28.2723 22.3466 28.2438 23.042C28.2211 23.7773 28.1756 24.5069 28.1017 25.2366C27.988 26.2797 27.806 27.3114 27.5445 28.3261C27.2545 29.4547 26.8963 30.5662 26.4016 31.6264C26.2936 31.8545 26.3846 31.9799 26.6291 31.9514C26.6802 31.9514 26.7257 31.9286 26.7769 31.9115C27.5047 31.6606 28.1188 31.216 28.7101 30.7486C29.165 30.3895 29.58 29.9848 29.9155 29.4946C30.1827 29.1013 30.2794 28.7194 30.0463 28.269C29.8131 27.8187 29.7051 27.3228 29.6937 26.73C29.6937 26.0175 30.1543 25.0257 30.757 24.5183C31.2971 24.0566 31.9055 23.8172 32.6333 23.9255L32.6276 23.9426Z" fill="url(#paint2_linear_227_1346)"/>
<path d="M32.4514 25.2479C31.5872 25.2479 30.9503 25.9376 30.939 26.7357C30.939 27.5679 31.5985 28.2348 32.423 28.2405C33.2645 28.2405 33.9183 27.5964 33.9297 26.7642C33.9411 25.892 33.219 25.2479 32.4514 25.2479Z" fill="#FFE6CA"/>
<path d="M27.3281 25.784C27.3508 25.2994 27.3679 24.8206 27.2258 24.3475C27.1234 23.9998 26.9415 23.9542 26.6799 24.2107C26.3786 24.5071 26.0715 24.8092 25.7531 25.0885C25.2812 25.4989 24.8093 25.9151 24.3089 26.2913C23.5186 26.8955 22.7226 27.494 21.8981 28.0526C21.3182 28.4459 20.7041 28.7822 20.09 29.1128C19.4475 29.4606 18.7936 29.7912 18.1227 30.0933C17.1675 30.5208 16.1838 30.8799 15.1774 31.1592C14.0573 31.4727 12.9202 31.7235 11.7546 31.8261C11.5044 31.8489 11.4418 31.9857 11.5897 32.1852C11.6181 32.2251 11.6579 32.2593 11.6977 32.2935C12.2777 32.8009 12.9713 33.103 13.6707 33.388C14.2108 33.6046 14.7681 33.7585 15.3594 33.8041C15.8313 33.8383 16.2123 33.7357 16.4795 33.3025C16.7524 32.875 17.122 32.5272 17.628 32.2251C18.2421 31.866 19.3281 31.7691 20.0673 32.037C20.7382 32.2764 21.2499 32.6811 21.5172 33.3652C21.5626 33.4735 21.7105 33.5761 21.8299 33.6103C21.9777 33.6559 22.154 33.6559 22.3075 33.6388C22.8477 33.5647 23.348 33.3595 23.854 33.1429C24.525 32.8579 25.0481 32.4018 25.4745 31.8204C26.117 30.9426 26.5093 29.9508 26.805 28.9133C27.095 27.893 27.2769 26.8499 27.3281 25.784Z" fill="url(#paint3_linear_227_1346)"/>
<path d="M18.2649 33.2967C17.5485 33.7129 17.304 34.6192 17.7133 35.3374C18.1341 36.067 19.0211 36.3121 19.7432 35.9017C20.4994 35.4742 20.6984 34.5223 20.3061 33.8611C19.8683 33.1143 18.9586 32.9034 18.2649 33.2967Z" fill="#FFE6CA"/>
<path d="M14.2791 30.7429C15.3082 30.4921 16.3032 30.1273 17.2471 29.6485C17.6735 29.4319 18.1 29.2039 18.4411 28.8448C18.6913 28.5826 18.6401 28.4059 18.2876 28.3033C17.8782 28.1893 17.4688 28.0753 17.0651 27.9328C16.4738 27.7276 15.8825 27.5167 15.3082 27.2715C14.3928 26.8839 13.4774 26.4849 12.5847 26.046C11.9592 25.7382 11.3622 25.3677 10.7709 24.9972C10.1511 24.6096 9.53707 24.2049 8.95143 23.7716C8.10992 23.1503 7.31391 22.472 6.56906 21.7367C5.73892 20.9159 4.96565 20.0494 4.29472 19.0861C4.15257 18.8809 3.99906 18.8923 3.89671 19.1203C3.87397 19.1659 3.86828 19.2172 3.85691 19.2628C3.70339 20.0209 3.78299 20.7734 3.89102 21.5258C3.97063 22.1015 4.11277 22.6658 4.36864 23.2016C4.57333 23.6291 4.85193 23.9085 5.35797 23.9313C5.86401 23.9541 6.34731 24.108 6.86472 24.393C7.47879 24.7521 8.09855 25.647 8.2407 26.4222C8.36579 27.1233 8.26913 27.7675 7.80857 28.3432C7.73466 28.4344 7.72329 28.6168 7.74603 28.7365C7.78014 28.8904 7.86543 29.0386 7.96209 29.164C8.29756 29.5972 8.724 29.9335 9.15612 30.2641C9.73608 30.7087 10.3899 30.9368 11.1007 31.0166C12.1753 31.142 13.2329 30.9881 14.2734 30.7315L14.2791 30.7429Z" fill="url(#paint4_linear_227_1346)"/>
<path d="M6.2507 25.4763C5.53428 25.0545 4.62455 25.2939 4.20948 26.0064C3.78304 26.7304 4.01616 27.631 4.72689 28.0585C5.47174 28.5088 6.39285 28.201 6.7738 27.5398C7.20024 26.7931 6.933 25.8924 6.2507 25.482V25.4763Z" fill="#FFE6CA"/>
<path d="M5.35818 13.9564C5.24447 13.9393 5.07958 14.0134 4.9886 14.0989C4.87489 14.2015 4.78391 14.3497 4.72137 14.4979C4.51099 15.0052 4.43139 15.541 4.35747 16.0825C4.26082 16.8065 4.3859 17.4905 4.6702 18.1517C5.09664 19.1492 5.75051 19.9986 6.48967 20.7795C7.21746 21.549 8.02485 22.2387 8.91184 22.8258C9.31554 23.0881 9.71923 23.3503 10.1968 23.4643C10.5494 23.5498 10.6801 23.4187 10.5892 23.0653C10.4868 22.6491 10.3845 22.2387 10.3049 21.8169C10.1912 21.2013 10.0774 20.58 10.0035 19.9587C9.88981 18.9668 9.77609 17.975 9.71923 16.9832C9.67943 16.2878 9.70217 15.5809 9.7306 14.8855C9.75903 14.1502 9.8102 13.4206 9.88981 12.691C10.0092 11.6478 10.2025 10.6218 10.4754 9.60716C10.7768 8.47853 11.1407 7.3727 11.6467 6.31817C11.7548 6.09016 11.6695 5.96476 11.4193 5.99326C11.3681 5.99326 11.3226 6.01606 11.2715 6.03316C10.5437 6.27827 9.92392 6.71718 9.32691 7.17889C8.86635 7.5323 8.4456 7.93701 8.11014 8.42153C7.8429 8.80914 7.74056 9.19105 7.96799 9.64706C8.20111 10.1031 8.30345 10.5933 8.30914 11.1861C8.30914 11.8986 7.83153 12.8848 7.22883 13.3864C6.68299 13.8424 6.0746 14.0761 5.3525 13.9621L5.35818 13.9564Z" fill="url(#paint5_linear_227_1346)"/>
<path d="M5.54537 12.6508C6.40962 12.6508 7.05212 11.9725 7.07487 11.1745C7.08624 10.3423 6.42668 9.66963 5.60223 9.65823C4.76073 9.64683 4.10117 10.2909 4.07842 11.1232C4.06137 11.9953 4.77778 12.6451 5.54537 12.6508Z" fill="#FFE6CA"/>
<defs>
<linearGradient id="paint0_linear_227_1346" x1="11.203" y1="14.298" x2="23.0422" y2="2.49421" gradientUnits="userSpaceOnUse">
<stop stop-color="#FF8C00"/>
<stop offset="1" stop-color="white"/>
</linearGradient>
<linearGradient id="paint1_linear_227_1346" x1="23.1206" y1="16.0422" x2="31.5975" y2="11.1585" gradientUnits="userSpaceOnUse">
<stop stop-color="#FF8C00"/>
<stop offset="1" stop-color="white"/>
</linearGradient>
<linearGradient id="paint2_linear_227_1346" x1="31.9624" y1="25.9662" x2="23.5425" y2="21.1223" gradientUnits="userSpaceOnUse">
<stop stop-color="white"/>
<stop offset="1" stop-color="#FF8C00"/>
</linearGradient>
<linearGradient id="paint3_linear_227_1346" x1="19.692" y1="35.0809" x2="19.1891" y2="22.7858" gradientUnits="userSpaceOnUse">
<stop stop-color="white"/>
<stop offset="1" stop-color="#FF8C00"/>
</linearGradient>
<linearGradient id="paint4_linear_227_1346" x1="6.58043" y1="27.1974" x2="14.0412" y2="21.9823" gradientUnits="userSpaceOnUse">
<stop stop-color="white"/>
<stop offset="1" stop-color="#FF8C00"/>
</linearGradient>
<linearGradient id="paint5_linear_227_1346" x1="14.3703" y1="16.8065" x2="6.03572" y2="12.008" gradientUnits="userSpaceOnUse">
<stop stop-color="#FF8C00"/>
<stop offset="1" stop-color="white"/>
</linearGradient>
</defs>
</svg>
